<?xml version="1.0" encoding="UTF-8" standalone="no"?>
<svg
   viewBox="0 0 30 30"
   version="1.1"
   id="svg19"
   sodipodi:docname="favicon.svg"
   inkscape:version="1.4 (e7c3feb1, 2024-10-09)"
   xmlns:inkscape="http://www.inkscape.org/namespaces/inkscape"
   xmlns:sodipodi="http://sodipodi.sourceforge.net/DTD/sodipodi-0.dtd"
   xmlns="http://www.w3.org/2000/svg"
   xmlns:svg="http://www.w3.org/2000/svg">
  <defs
     id="defs19" />
  <sodipodi:namedview
     id="namedview19"
     pagecolor="#ffffff"
     bordercolor="#000000"
     borderopacity="0.25"
     inkscape:showpageshadow="2"
     inkscape:pageopacity="0.0"
     inkscape:pagecheckerboard="0"
     inkscape:deskcolor="#d1d1d1"
     inkscape:zoom="9.0132829"
     inkscape:cx="2.4963157"
     inkscape:cy="27.459473"
     inkscape:window-width="1472"
     inkscape:window-height="804"
     inkscape:window-x="48"
     inkscape:window-y="332"
     inkscape:window-maximized="0"
     inkscape:current-layer="g11" />
  <g
     id="g19">
    <g
       id="g11"
       transform="matrix(0.95568221,0,0,0.95046302,8.637016,-0.56316207)">
      <rect
         style="fill:#ffffff;stroke:#ffffff;stroke-width:0.536586;stroke-linecap:round;stroke-linejoin:round;stroke-opacity:0.956422"
         id="rect1"
         width="43.67305"
         height="39.582321"
         x="-16.612314"
         y="-4.5492544" />
      <path
         d="m -2.7233132,20.316641 a 1.1158481,1.1504945 0 1 1 1.1158474,1.148465 1.1158481,1.1504945 0 0 1 -1.1158474,-1.148465 z"
         fill="none"
         stroke="#231f20"
         stroke-linejoin="round"
         stroke-width="0.717123"
         id="path1"
         style="stroke-width:0.742515;stroke-dasharray:none" />
      <line
         x1="-7.8628292"
         y1="26.586454"
         x2="5.1323686"
         y2="26.586454"
         fill="none"
         stroke="#231f20"
         stroke-linecap="round"
         stroke-linejoin="round"
         stroke-width="1.39794"
         id="line5" />
      <polyline
         points="8.513 16.239 4.546 16.239 4.546 19.923 5.113 19.923"
         fill="none"
         stroke="#231f20"
         stroke-linecap="round"
         stroke-linejoin="round"
         stroke-width="0.639"
         id="polyline6"
         transform="matrix(-1.3983217,0,0,-1.3841787,13.385775,46.672146)" />
      <polyline
         points="8.513 16.239 15.315 16.239 15.315 19.923 14.748 19.923"
         fill="none"
         stroke="#231f20"
         stroke-linecap="round"
         stroke-linejoin="round"
         stroke-width="0.639"
         id="polyline7"
         transform="matrix(-1.4205432,0,0,-1.4061754,11.206271,47.035759)" />
      <polyline
         points="1.479 10.88 1.479 12.389 0.573 12.389 0.573 11.182 0.573 9.672 2.083 9.672"
         fill="none"
         stroke="#231f20"
         stroke-linecap="round"
         stroke-linejoin="round"
         stroke-width="0.639"
         id="polyline8"
         transform="matrix(1.2277785,0,0,1.4187052,-16.207791,-5.6682876)" />
      <path
         d="m 5.8563411,30.035845 v 0 L 4.9130355,26.586462 h 3.5291542 a 0.98948224,0.97947439 0 0 0 0.9894814,-0.979474 l 0.412284,-7.391765 V 6.8778045 A 3.9810171,3.9407522 0 0 0 5.8629385,2.9354193 V 0.47204109 A 0.98948224,0.97947439 0 0 0 4.873456,-0.50743321 H -8.0689717 a 0.98948224,0.97947439 0 0 0 -0.9894825,0.9794743 V 2.9354193 A 3.9826661,3.9423845 0 0 0 -13.051015,6.8778045 V 18.210325 l 0.412284,7.391766 a 0.98948224,0.97947439 0 0 0 0.989482,0.979474 h 3.5357505 l -0.9433063,3.449382 H 5.8563411 Z"
         fill="none"
         stroke="#231f20"
         stroke-linecap="round"
         stroke-linejoin="round"
         stroke-width="1.39794"
         id="path8" />
      <path
         style="fill:#fbfbfb;stroke:#231f20;stroke-width:1.39794;stroke-linecap:round;stroke-linejoin:round;stroke-dasharray:none;stroke-opacity:1"
         d="M -9.2572533,2.9412195 H 5.9091225"
         id="path19" />
      <path
         style="fill:none;fill-opacity:0;stroke:#231f20;stroke-width:1.00061;stroke-linecap:round;stroke-linejoin:round;stroke-dasharray:none;stroke-opacity:1"
         d="m 0.69390445,7.8297411 -0.016331,8.4363469 H -4.0361103 l 0.0361,-8.410388 2.3597187,-0.427363 z"
         id="path20"
         sodipodi:nodetypes="cccccc" />
      <path
         style="fill:none;fill-opacity:0;stroke:#231f20;stroke-width:1.00061;stroke-linecap:round;stroke-linejoin:round;stroke-dasharray:none;stroke-opacity:1"
         d="M -5.8620421,7.9299048 -5.8783731,16.36625 H -10.59206 l 0.0361,-8.4103875 2.3597193,-0.4273608 z"
         id="path20-5"
         sodipodi:nodetypes="cccccc" />
      <path
         d="M 5.9731773,21.956197 A 9.7932191,9.6300494 0 1 1 15.766398,31.569258 9.7932191,9.6300494 0 0 1 5.9731773,21.956197 Z"
         fill="none"
         stroke="#231f20"
         stroke-linejoin="round"
         stroke-width="0.717123"
         id="path1-0"
         style="fill:#ffffff;fill-opacity:1;stroke-width:1.79641;stroke-dasharray:none" />
      <path
         style="fill:none;fill-opacity:0;stroke:#231f20;stroke-width:1.00061;stroke-linecap:round;stroke-linejoin:round;stroke-dasharray:none;stroke-opacity:1"
         d="M 7.331054,7.7972219 7.3147183,16.233567 H 2.6010407 l 0.0361,-8.4103884 2.3597188,-0.427364 z"
         id="path20-3"
         sodipodi:nodetypes="cccccc" />
      <path
         style="fill:#ffffff;fill-opacity:1;stroke:#231f20;stroke-width:0.983461;stroke-linecap:round;stroke-linejoin:round;stroke-dasharray:none;stroke-opacity:1"
         d="m 15.588183,14.027233 -0.0016,0.961714"
         id="path22-8"
         sodipodi:nodetypes="cc" />
      <path
         style="fill:#ffffff;fill-opacity:1;stroke:#231f20;stroke-width:0.983461;stroke-linecap:round;stroke-linejoin:round;stroke-dasharray:none;stroke-opacity:1"
         d="m 15.78272,28.449503 -0.0016,0.961712"
         id="path22-8-8"
         sodipodi:nodetypes="cc" />
      <path
         style="fill:#ffffff;fill-opacity:1;stroke:#231f20;stroke-width:1.79641;stroke-linecap:round;stroke-linejoin:round;stroke-dasharray:none;stroke-opacity:1"
         d="m 15.157156,21.765763 4.727719,-6.355739 -3.901579,6.789248"
         id="path21"
         sodipodi:nodetypes="ccc" />
      <path
         style="fill:#ffffff;fill-opacity:1;stroke:#231f20;stroke-width:0.983461;stroke-linecap:round;stroke-linejoin:round;stroke-dasharray:none;stroke-opacity:1"
         d="m 9.2232711,17.744051 0.7975239,0.584942"
         id="path22" />
      <path
         style="fill:#ffffff;fill-opacity:1;stroke:#231f20;stroke-width:0.983461;stroke-linecap:round;stroke-linejoin:round;stroke-dasharray:none;stroke-opacity:1"
         d="m 21.327736,25.669858 0.797522,0.584945"
         id="path22-7" />
      <path
         style="fill:#ffffff;fill-opacity:1;stroke:#231f20;stroke-width:0.983461;stroke-linecap:round;stroke-linejoin:round;stroke-dasharray:none;stroke-opacity:1"
         d="m 21.990726,19.243895 0.923705,-0.754681"
         id="path22-4"
         sodipodi:nodetypes="cc" />
      <path
         style="fill:#ffffff;fill-opacity:1;stroke:#231f20;stroke-width:0.983461;stroke-linecap:round;stroke-linejoin:round;stroke-dasharray:none;stroke-opacity:1"
         d="m 10.032958,26.625104 0.923703,-0.754682"
         id="path22-4-5"
         sodipodi:nodetypes="cc" />
    </g>
    <ellipse
       cx="23.543377"
       cy="20.319212"
       fill="#231f20"
       id="circle13-6"
       rx="1.3034905"
       ry="1.2483528"
       style="stroke-width:13.385;stroke-dasharray:none" />
  </g>
</svg>
